<mxfile host="app.diagrams.net" modified="2022-11-15T01:08:52.632Z" agent="5.0 (Windows NT 10.0; Win64; x64) AppleWebKit/537.36 (KHTML, like Gecko) Chrome/107.0.0.0 Safari/537.36 Edg/107.0.1418.42" etag="iZ4JFsUkGE2rJpsSCjkQ" version="20.5.3" type="github">
  <diagram id="kgpKYQtTHZ0yAKxKKP6v" name="Page-1">
    <mxGraphModel dx="1038" dy="579" grid="1" gridSize="10" guides="1" tooltips="1" connect="1" arrows="1" fold="1" page="1" pageScale="1" pageWidth="850" pageHeight="1100" math="0" shadow="0">
      <root>
        <mxCell id="0" />
        <mxCell id="1" parent="0" />
        <mxCell id="43ZPZbCzDa6xXFbbZbYC-1" value="ui" style="shape=umlLifeline;perimeter=lifelinePerimeter;whiteSpace=wrap;html=1;container=1;collapsible=0;recursiveResize=0;outlineConnect=0;" vertex="1" parent="1">
          <mxGeometry x="281" y="10" width="100" height="590" as="geometry" />
        </mxCell>
        <mxCell id="43ZPZbCzDa6xXFbbZbYC-19" value="네트웍 연결 화면 출력" style="html=1;verticalAlign=bottom;endArrow=block;rounded=0;" edge="1" parent="43ZPZbCzDa6xXFbbZbYC-1">
          <mxGeometry width="80" relative="1" as="geometry">
            <mxPoint x="49" y="188" as="sourcePoint" />
            <mxPoint x="-125" y="188" as="targetPoint" />
          </mxGeometry>
        </mxCell>
        <mxCell id="43ZPZbCzDa6xXFbbZbYC-20" value="" style="html=1;points=[];perimeter=orthogonalPerimeter;" vertex="1" parent="43ZPZbCzDa6xXFbbZbYC-1">
          <mxGeometry x="45" y="79" width="10" height="30" as="geometry" />
        </mxCell>
        <mxCell id="43ZPZbCzDa6xXFbbZbYC-25" value="" style="html=1;points=[];perimeter=orthogonalPerimeter;" vertex="1" parent="43ZPZbCzDa6xXFbbZbYC-1">
          <mxGeometry x="45" y="128" width="10" height="22" as="geometry" />
        </mxCell>
        <mxCell id="43ZPZbCzDa6xXFbbZbYC-32" value="" style="html=1;points=[];perimeter=orthogonalPerimeter;" vertex="1" parent="43ZPZbCzDa6xXFbbZbYC-1">
          <mxGeometry x="45" y="179" width="10" height="20" as="geometry" />
        </mxCell>
        <mxCell id="43ZPZbCzDa6xXFbbZbYC-2" value="user" style="shape=umlLifeline;perimeter=lifelinePerimeter;whiteSpace=wrap;html=1;container=1;collapsible=0;recursiveResize=0;outlineConnect=0;" vertex="1" parent="1">
          <mxGeometry x="101" y="10" width="100" height="590" as="geometry" />
        </mxCell>
        <mxCell id="43ZPZbCzDa6xXFbbZbYC-21" value="" style="html=1;points=[];perimeter=orthogonalPerimeter;" vertex="1" parent="43ZPZbCzDa6xXFbbZbYC-2">
          <mxGeometry x="45" y="98" width="10" height="12" as="geometry" />
        </mxCell>
        <mxCell id="43ZPZbCzDa6xXFbbZbYC-22" value="" style="html=1;points=[];perimeter=orthogonalPerimeter;" vertex="1" parent="43ZPZbCzDa6xXFbbZbYC-2">
          <mxGeometry x="45" y="187" width="10" height="20" as="geometry" />
        </mxCell>
        <mxCell id="43ZPZbCzDa6xXFbbZbYC-3" value="데몬 통신 테스터" style="shape=umlLifeline;perimeter=lifelinePerimeter;whiteSpace=wrap;html=1;container=1;collapsible=0;recursiveResize=0;outlineConnect=0;" vertex="1" parent="1">
          <mxGeometry x="461" y="10" width="100" height="590" as="geometry" />
        </mxCell>
        <mxCell id="43ZPZbCzDa6xXFbbZbYC-13" value="ip, 포트, 수신기 정보 전달" style="html=1;verticalAlign=bottom;endArrow=block;rounded=0;" edge="1" parent="43ZPZbCzDa6xXFbbZbYC-3">
          <mxGeometry width="80" relative="1" as="geometry">
            <mxPoint x="-131" y="137" as="sourcePoint" />
            <mxPoint x="49.5" y="137" as="targetPoint" />
          </mxGeometry>
        </mxCell>
        <mxCell id="43ZPZbCzDa6xXFbbZbYC-31" value="" style="html=1;points=[];perimeter=orthogonalPerimeter;" vertex="1" parent="43ZPZbCzDa6xXFbbZbYC-3">
          <mxGeometry x="45" y="167" width="10" height="20" as="geometry" />
        </mxCell>
        <mxCell id="43ZPZbCzDa6xXFbbZbYC-4" value="데몬 sw" style="shape=umlLifeline;perimeter=lifelinePerimeter;whiteSpace=wrap;html=1;container=1;collapsible=0;recursiveResize=0;outlineConnect=0;" vertex="1" parent="1">
          <mxGeometry x="641" y="10" width="100" height="590" as="geometry" />
        </mxCell>
        <mxCell id="43ZPZbCzDa6xXFbbZbYC-28" value="" style="html=1;points=[];perimeter=orthogonalPerimeter;" vertex="1" parent="43ZPZbCzDa6xXFbbZbYC-4">
          <mxGeometry x="45" y="140" width="10" height="20" as="geometry" />
        </mxCell>
        <mxCell id="43ZPZbCzDa6xXFbbZbYC-5" value="데몬 통신 테스터에 접속" style="html=1;verticalAlign=bottom;endArrow=block;rounded=0;" edge="1" parent="1" target="43ZPZbCzDa6xXFbbZbYC-1">
          <mxGeometry width="80" relative="1" as="geometry">
            <mxPoint x="150" y="90" as="sourcePoint" />
            <mxPoint x="230" y="90" as="targetPoint" />
          </mxGeometry>
        </mxCell>
        <mxCell id="43ZPZbCzDa6xXFbbZbYC-11" value="테스터 화면 출력" style="html=1;verticalAlign=bottom;endArrow=block;rounded=0;" edge="1" parent="1">
          <mxGeometry width="80" relative="1" as="geometry">
            <mxPoint x="330" y="110" as="sourcePoint" />
            <mxPoint x="150.5" y="110" as="targetPoint" />
          </mxGeometry>
        </mxCell>
        <mxCell id="43ZPZbCzDa6xXFbbZbYC-12" value="ip, 포트, 수신기 입력" style="html=1;verticalAlign=bottom;endArrow=block;rounded=0;" edge="1" parent="1">
          <mxGeometry width="80" relative="1" as="geometry">
            <mxPoint x="150" y="141" as="sourcePoint" />
            <mxPoint x="330.5" y="141" as="targetPoint" />
          </mxGeometry>
        </mxCell>
        <mxCell id="43ZPZbCzDa6xXFbbZbYC-14" value="네트웍 연결 요청" style="html=1;verticalAlign=bottom;endArrow=block;rounded=0;startArrow=none;" edge="1" parent="1" source="43ZPZbCzDa6xXFbbZbYC-26">
          <mxGeometry width="80" relative="1" as="geometry">
            <mxPoint x="511" y="155" as="sourcePoint" />
            <mxPoint x="691.5" y="155" as="targetPoint" />
          </mxGeometry>
        </mxCell>
        <mxCell id="43ZPZbCzDa6xXFbbZbYC-15" value="네트웍 연결" style="html=1;verticalAlign=bottom;endArrow=block;rounded=0;" edge="1" parent="1">
          <mxGeometry width="80" relative="1" as="geometry">
            <mxPoint x="690" y="178" as="sourcePoint" />
            <mxPoint x="510" y="178" as="targetPoint" />
          </mxGeometry>
        </mxCell>
        <mxCell id="43ZPZbCzDa6xXFbbZbYC-18" value="네트웍 연결 전달" style="html=1;verticalAlign=bottom;endArrow=block;rounded=0;" edge="1" parent="1">
          <mxGeometry width="80" relative="1" as="geometry">
            <mxPoint x="510" y="190" as="sourcePoint" />
            <mxPoint x="330.5" y="190" as="targetPoint" />
          </mxGeometry>
        </mxCell>
        <mxCell id="43ZPZbCzDa6xXFbbZbYC-26" value="" style="html=1;points=[];perimeter=orthogonalPerimeter;" vertex="1" parent="1">
          <mxGeometry x="506" y="140" width="10" height="20" as="geometry" />
        </mxCell>
        <mxCell id="43ZPZbCzDa6xXFbbZbYC-27" value="" style="html=1;verticalAlign=bottom;endArrow=none;rounded=0;" edge="1" parent="1" target="43ZPZbCzDa6xXFbbZbYC-26">
          <mxGeometry width="80" relative="1" as="geometry">
            <mxPoint x="511" y="155" as="sourcePoint" />
            <mxPoint x="691.5" y="155" as="targetPoint" />
          </mxGeometry>
        </mxCell>
      </root>
    </mxGraphModel>
  </diagram>
</mxfile>
